<svg id="Logo_A" data-name="Logo A" xmlns="http://www.w3.org/2000/svg" viewBox="0 0 664.82 211.01"><title>lerja-logo-a-black-web</title><g id="Logo"><path d="M554.52,39.56l3.3,0c2.25,1.28,3,3.44,3,6.27,0,6.18-.26,12.37.18,18.54s.75,12.47.72,18.73c0,3.06,0,6.12.18,9.16,0,1-.1,2.51,1,2.7s1.4-1.34,1.68-2.36c1.39-5,2.58-10.08,4.11-15,3-9.82,6.08-19.63,8.06-29.85.77-3.94,3.39-5.33,6.55-3.69,2.53,1.31,3.46,3.68,2.91,7-.77,4.68-2.42,9.09-3,13.81a135.76,135.76,0,0,1-5.38,24.53,68.72,68.72,0,0,0-2.25,8.1c-.16.83-.32,1.78.53,2.26a1.63,1.63,0,0,0,2.29-.67,11.92,11.92,0,0,0,1.08-2.21,85.7,85.7,0,0,1,5.62-11.46,126.38,126.38,0,0,0,8.77-17.44,47.29,47.29,0,0,1,3.37-6.57A4.12,4.12,0,0,1,601.65,59c2,.35,3.27,1.78,4,3.92.6,1.8,0,3.36-.76,4.86-5.37,11.14-9.91,22.8-15.47,33.83a42.37,42.37,0,0,0-1.91,4.6c-.36,1-1.07,2.1,0,3.09a2.63,2.63,0,0,0,3.27.47,7.38,7.38,0,0,0,1.51-1.2,60.89,60.89,0,0,1,7.88-6.54c3.91-2.75,7.78-5.58,11-9.49A17.41,17.41,0,0,1,616,88.44c2.07-1.18,4-.83,5.18.85a5.47,5.47,0,0,1,0,6.3,28.91,28.91,0,0,1-5,6.12c-5.3,4.79-10.56,9.63-15.88,14.4a34.45,34.45,0,0,0-9.41,13.63c-1.74,4.6-3.07,9.42-4.52,14.17a32.91,32.91,0,0,1-5.93,11.39,7.18,7.18,0,0,0-1.79,3.18c-.61,3.32-1.57,6.57-1.69,10-.09,2.81-.11,2.86-2.49,2.87l-26.75.12c-3.91,0-4,0-4.28-4.51-.33-4.84-1.45-9.08-5.48-11.54a8,8,0,0,1-2-2.12A88,88,0,0,0,521,137.2a26.41,26.41,0,0,0-4.93-3.63,91.75,91.75,0,0,1-18.53-11.52,16.73,16.73,0,0,1-3.11-3.28c0-1.14,0-2.28,0-3.41,1.44-2.77,3.58-4.3,6.33-4.33a23,23,0,0,1,12.81,3.85,88.22,88.22,0,0,0,12.81,6.76,8.05,8.05,0,0,0,4.14.73c1.75-.22,3.54-.84,4.28-2.79,2.52-6.61,4-13.6,2.26-20.71-2.72-10.76-6.72-21-9.54-31.75-1.09-4.16-2.45-8.21-2.31-12.64.11-3.49,2.18-5.65,5.15-5.42,2.78.21,3.88,2.57,4.82,5.14,1.77,4.85,2.31,10.13,4.06,15,2.56,7.14,5.37,14.18,7.38,21.58a26,26,0,0,0,1.24,3.32,1.38,1.38,0,0,0,1.5,1c.77-.13.88-.9.92-1.61a32.29,32.29,0,0,0,.09-3.41c-.54-14.55.86-29.06.73-43.6,0-3.27,1.07-5.41,3.4-6.92"/><path d="M560.32,209a103.5,103.5,0,1,1,103.5-103.5A103.62,103.62,0,0,1,560.32,209Zm0-202.31a98.81,98.81,0,1,0,98.81,98.81A98.92,98.92,0,0,0,560.32,6.7Z"/><path d="M1,2H8.62V148.92H1Z"/><path d="M129.63,109.88H56.51a34.24,34.24,0,0,0,63.79,17.71l6.28,3.23a40.56,40.56,0,0,1-35.8,21,41.77,41.77,0,0,1-41.89-41.89C48.89,86.65,66.6,68,89.83,68c23.42,0,40,18.47,40,40A8.66,8.66,0,0,1,129.63,109.88Zm-72.36-7.24h64.36c-2.47-15.23-14.47-27.42-31.8-27.42C73.26,75.22,60.31,87,57.27,102.64Z"/><path d="M219.75,78.46l-5.53,4.76c-3.8-4.76-8.37-8-14.47-8-7.62,0-14.28,5.14-20.95,20.38v53.32h-7.61V70.84h7.61V82.27c5.53-9.53,12-14.29,20.95-14.29S214.8,72.74,219.75,78.46Z"/><path d="M260.92,68h7.62V208.92h-7.62Z"/><path d="M394.17,70.84v78.08h-7.61V132a38.79,38.79,0,0,1-34.28,19.8,41.9,41.9,0,1,1,0-83.79,38.78,38.78,0,0,1,34.28,19.81v-17Zm-7.61,39a34.28,34.28,0,1,0-34.28,34.66A34.46,34.46,0,0,0,386.56,109.88Z"/></g></svg>
